<?xml version="1.0" encoding="utf-8"?>
<!-- Generator: Adobe Illustrator 26.3.1, SVG Export Plug-In . SVG Version: 6.00 Build 0)  -->
<svg version="1.1" id="Layer_1" xmlns="http://www.w3.org/2000/svg" xmlns:xlink="http://www.w3.org/1999/xlink" x="0px" y="0px"
	 viewBox="0 0 48 48" style="enable-background:new 0 0 48 48;" xml:space="preserve">
<style type="text/css">
	.st0{display:none;}
	.st1{display:inline;fill:#FFD3C5;}
	.st2{display:inline;fill:#55BEA7;}
	.st3{display:inline;fill:#F6C04D;}
	.st4{display:inline;}
	.st5{fill:none;stroke:#55BEA7;stroke-miterlimit:10;}
	.st6{fill:none;stroke:#F6C04D;stroke-miterlimit:10;}
	.st7{fill:#F6FFFD;}
	.st8{fill:#F6C04D;}
	.st9{fill:#55BEA7;}
	.st10{fill:#FFFFFF;}
	.st11{fill:none;stroke:#F6C04D;stroke-width:2;stroke-linecap:round;stroke-linejoin:round;stroke-miterlimit:10;}
	.st12{fill:none;stroke:#55BEA7;stroke-width:2;stroke-miterlimit:10;}
	.st13{fill:none;stroke:#F6C04D;stroke-width:1.5;stroke-linecap:round;stroke-linejoin:round;stroke-miterlimit:10;}
	.st14{fill:none;stroke:#55BEA7;stroke-width:1.5;stroke-miterlimit:10;}
</style>
<g id="Layer_1_00000019652449779963729720000000459098269106031505_" class="st0">
	<path class="st1" d="M9,44c-0.8,0-1.5-0.3-2.1-0.9C6.3,42.5,6,41.8,6,41v-9.9l6.8-7.4l2.1,2.1L9,32.2h30L33.5,26l2.2-2.1l6.4,7.3
		V41c0,0.8-0.3,1.5-0.9,2.1C40.5,43.7,39.8,44,39,44H9z"/>
	<rect x="9" y="35.2" class="st2" width="30" height="5.8"/>
	<path class="st1" d="M22.1,28.8l-7.9-8c-0.6-0.6-0.9-1.3-0.9-2.1c0.1-0.8,0.4-1.5,1-2.1L24.9,6c0.6-0.6,1.3-0.9,2.1-0.9
		s1.6,0.3,2.1,0.9l7.9,7.9c0.6,0.6,0.9,1.2,0.9,2c0,0.8-0.3,1.5-1,2.2L26.4,28.8c-0.6,0.6-1.3,0.9-2.1,0.9
		C23.5,29.7,22.7,29.4,22.1,28.8z"/>
	
		<rect x="18.2" y="12.1" transform="matrix(0.7071 -0.7071 0.7071 0.7071 -4.8202 23.1869)" class="st3" width="14.7" height="10.6"/>
	<path class="st4" d="M53.7,22.9V11.7c0-0.9,0.3-1.6,0.9-2.1c0.6-0.5,1.3-0.8,2.2-0.8h15c0.8,0,1.5,0.3,2.1,0.9
		c0.6,0.6,0.9,1.3,0.9,2.1V23c0,0.8-0.3,1.5-0.8,2.1S72.7,26,71.7,26h-15c-0.8,0-1.5-0.3-2.1-0.8C54,24.6,53.7,23.8,53.7,22.9z"/>
	<rect x="56.9" y="12" class="st3" width="14.7" height="10.6"/>
	<path class="st4" d="M9,41v-5.8V41z"/>
</g>
<g>
	<path class="st5" d="M87-25.5l6.4,7.3v12.9h-36v-12.9l6.8-7.4l8.4,8.3c1.6,1.6,4.2,1.6,5.8,0.1L87-25.5z"/>
	<path class="st6" d="M88.4-31.2L77.8-20.6c-1.2,1.2-3.1,1.2-4.3,0l-7.8-7.8c-1.2-1.2-1.2-3.1,0-4.3l10.6-10.6
		c1.2-1.2,3.1-1.2,4.3,0l7.8,7.8C89.6-34.3,89.6-32.3,88.4-31.2z"/>
</g>
<path class="st7" d="M43.1,48H4.9C2.2,48,0,45.8,0,43.1V4.9C0,2.2,2.2,0,4.9,0H43c2.8,0,5,2.2,5,4.9V43C48,45.8,45.8,48,43.1,48z"/>
<g>
	<path class="st7" d="M96.8,48.6H58.6c-2.7,0-4.9-2.2-4.9-4.9V5.5c0-2.7,2.2-4.9,4.9-4.9h38.1c2.8,0,5,2.2,5,4.9v38.1
		C101.7,46.4,99.5,48.6,96.8,48.6z"/>
	<path class="st8" d="M93.1,44.3H62.3c-1,0-1.8-0.8-1.8-1.8V6.7c0-1,0.8-1.8,1.8-1.8h30.8c1,0,1.8,0.8,1.8,1.8v35.8
		C94.9,43.5,94.1,44.3,93.1,44.3z"/>
	<path class="st9" d="M93.1,44.3H62.3c-1,0-1.8-0.8-1.8-1.8V18.6h34.4v23.9C94.9,43.5,94.1,44.3,93.1,44.3z"/>
	<g>
		<g>
			<path d="M67.2,15.4l-2.6-7H66l2,5.7l2-5.7h1.4l-2.6,7H67.2z"/>
			<path d="M75.4,15.5c-0.7,0-1.3-0.2-1.8-0.5c-0.5-0.3-0.9-0.7-1.2-1.3c-0.3-0.5-0.4-1.2-0.4-1.9c0-0.7,0.1-1.3,0.4-1.9
				c0.3-0.5,0.7-1,1.2-1.3s1.1-0.5,1.8-0.5c0.7,0,1.3,0.2,1.8,0.5s0.9,0.7,1.2,1.3c0.3,0.5,0.4,1.2,0.4,1.9s-0.1,1.3-0.4,1.9
				c-0.3,0.5-0.7,1-1.2,1.3C76.8,15.3,76.1,15.5,75.4,15.5z M75.4,14.3c0.7,0,1.2-0.2,1.6-0.7s0.6-1,0.6-1.8c0-0.8-0.2-1.4-0.6-1.8
				c-0.4-0.4-0.9-0.7-1.6-0.7s-1.2,0.2-1.6,0.7c-0.4,0.4-0.6,1-0.6,1.8c0,0.8,0.2,1.4,0.6,1.8C74.2,14.1,74.8,14.3,75.4,14.3z"/>
			<path d="M81.7,15.4v-6h-2v-1h5.4v1H83v6H81.7z"/>
			<path d="M86.2,15.4v-7h4.5v1h-3.3v1.9h3v1h-3v2h3.3v1h-4.5V15.4z"/>
		</g>
	</g>
	<polyline class="st10" points="68.9,25.5 77,33.6 94.9,15.7 94.9,23.2 77.1,41 65.3,29.2 68.9,25.5 	"/>
</g>
<g>
	<path class="st11" d="M39.4,4.3H8.6c-1,0-1.8,0.8-1.8,1.8V18h31.5l2.9-2.9v-9C41.2,5.1,40.4,4.3,39.4,4.3z"/>
	<path class="st12" d="M12.3,27.9l2.2-2.3c0.4-0.4,1-0.4,1.4,0l6.7,6.7c0.4,0.4,1,0.4,1.4,0L38.3,18H6.8v23.9c0,1,0.8,1.8,1.8,1.8
		h30.8c1,0,1.8-0.8,1.8-1.8V22.6L24.1,39.7c-0.4,0.4-1.1,0.4-1.5,0L12.3,29.3C11.9,28.9,11.9,28.3,12.3,27.9z"/>
</g>
<g>
	<line class="st13" x1="6.1" y1="-10.5" x2="42.1" y2="-10.5"/>
	<path class="st14" d="M37.1-24l4.4,5.1c0.3,0.4,0.5,0.9,0.5,1.4v12.1h-36v-12.1c0-0.5,0.2-1,0.5-1.4l4.7-5.2c0.8-0.9,2.2-0.9,3-0.1
		l8.2,8.2c0.8,0.8,2.1,0.8,2.9,0l8.5-8.2C35-25,36.2-24.9,37.1-24z"/>
	<path class="st6" d="M16.2-34.2"/>
	<path class="st13" d="M38.1-42.3L38.1-42.3L24.9-29.1c-0.5,0.5-1.3,0.5-1.9,0l-5.3-5.3c-0.5-0.5-1.3-0.5-1.9,0L13.3-32
		c-0.5,0.5-0.5,1.3,0,1.9l9.7,9.7c0.5,0.5,1.3,0.5,1.9,0l12.7-12.7c0.2-0.2,0.4-0.6,0.4-0.9C38.1-34,38.1-42.3,38.1-42.3z"/>
</g>
</svg>
