<?xml version="1.0" encoding="utf-8"?>
<!-- Generator: Adobe Illustrator 26.4.1, SVG Export Plug-In . SVG Version: 6.00 Build 0)  -->
<svg version="1.1" id="Layer_1" xmlns="http://www.w3.org/2000/svg" xmlns:xlink="http://www.w3.org/1999/xlink" x="0px" y="0px"
	 viewBox="0 0 48 48" style="enable-background:new 0 0 48 48;" xml:space="preserve">
<style type="text/css">
	.st0{fill:#FFFFFF;}
</style>
<path class="st0" d="M22,25.5c0.4,0,0.8-0.1,1.1-0.5c0.3-0.3,0.4-0.6,0.4-1c0-0.4-0.1-0.8-0.4-1.1c-0.3-0.3-0.6-0.4-1.1-0.4
	c-0.4,0-0.8,0.1-1,0.4c-0.3,0.3-0.5,0.6-0.5,1.1c0,0.4,0.1,0.8,0.5,1C21.3,25.4,21.6,25.5,22,25.5z M13,42v-3l14-2.5V13.2
	c0-0.5-0.1-0.9-0.4-1.2c-0.2-0.3-0.6-0.6-1-0.6L13,9.4V6.5l13.3,2.3c1.1,0.2,2,0.7,2.6,1.5c0.7,0.9,1.1,1.8,1.1,2.9V39L13,42z M6,42
	v-3h4V9.5c0-0.9,0.3-1.6,0.9-2.2s1.3-0.8,2.1-0.8h22c0.9,0,1.6,0.3,2.2,0.8C37.7,7.9,38,8.6,38,9.5V39h4v3H6z M13,39h22V9.5L13,9.4
	V39z"/>
</svg>
