<?xml version="1.0" encoding="utf-8"?>
<!-- Generator: Adobe Illustrator 26.4.1, SVG Export Plug-In . SVG Version: 6.00 Build 0)  -->
<svg version="1.1" id="Layer_1" xmlns="http://www.w3.org/2000/svg" xmlns:xlink="http://www.w3.org/1999/xlink" x="0px" y="0px"
	 viewBox="0 0 48 48" style="enable-background:new 0 0 48 48;" xml:space="preserve">
<style type="text/css">
	.st0{fill:#FFFFFF;}
</style>
<path class="st0" d="M21.2,44c-1.7,0-3-0.5-3.9-1.5c-0.9-1-1.3-2.2-1.3-3.5c0-0.9,0.2-1.7,0.6-2.5c0.4-0.8,1-1.5,1.8-2
	c0.7-0.5,1.3-1.1,1.8-1.9s0.8-1.9,1.1-3.2c0,0,0,0,0,0s0,0-0.1-0.1l-5.8,2c-0.6,0.2-1.1,0.4-1.6,0.5C13.1,31.9,12.6,32,12,32
	c-2.1,0-4-0.9-5.6-2.8c-1.6-1.8-2.4-4.5-2.4-8c0-1.7,0.5-3,1.5-3.9S7.7,16,8.9,16c0.9,0,1.7,0.2,2.6,0.6s1.5,1,2.1,1.8
	c0.5,0.7,1.1,1.4,2,1.9c0.8,0.5,1.9,0.9,3.1,1c0,0,0.1-0.1,0.1-0.1c0,0,0-0.1,0-0.1l-2-5.7c-0.2-0.6-0.4-1.1-0.5-1.6
	S16,12.6,16,12.1c0-2.1,0.9-4,2.8-5.6s4.5-2.4,8-2.4c1.7,0,3,0.5,3.9,1.5c0.9,1,1.3,2.2,1.3,3.4c0,0.9-0.2,1.7-0.6,2.6
	c-0.4,0.8-1,1.5-1.8,2.1c-0.9,0.6-1.5,1.3-2,2.2c-0.5,0.9-0.8,1.9-0.8,2.9c0,0,0.1,0,0.1,0s0,0,0.1,0.1l5.8-2.1
	c0.6-0.2,1.1-0.4,1.6-0.5c0.5-0.1,1.1-0.2,1.6-0.2c2.7,0,4.7,1.1,6,3.4s2,4.7,2,7.4c0,1.7-0.5,3-1.6,3.9c-1.1,0.9-2.3,1.3-3.6,1.3
	c-0.8,0-1.6-0.2-2.4-0.6c-0.8-0.4-1.4-1-2-1.8c-0.5-0.7-1.1-1.3-1.9-1.8c-0.8-0.5-1.9-0.9-3.2-1.1l-0.1,0.1c0,0,0,0.1-0.1,0.1
	l2.1,5.8c0.2,0.5,0.4,1,0.5,1.5c0.1,0.5,0.2,1,0.2,1.5c0,2.2-0.9,4.1-2.7,5.8C27.5,43.2,24.8,44,21.2,44z M24,27
	c0.8,0,1.5-0.3,2.1-0.9S27,24.8,27,24s-0.3-1.5-0.9-2.1S24.8,21,24,21s-1.5,0.3-2.1,0.9S21,23.2,21,24s0.3,1.5,0.9,2.1
	S23.2,27,24,27z M21.1,18.8c0.4-0.2,0.8-0.3,1.3-0.5c0.5-0.1,0.9-0.2,1.4-0.3c0.3-1.5,0.8-2.8,1.5-4.1s1.6-2.2,2.7-2.9
	c0.3-0.2,0.6-0.5,0.8-0.9S29,9.4,29,8.9c0-0.5-0.2-1-0.5-1.4C28.1,7.2,27.6,7,26.8,7c-1.4,0-3.1,0.3-4.9,1s-2.8,2-2.9,4
	c0,0.4,0,0.7,0.1,1.1c0.1,0.3,0.2,0.6,0.3,0.9L21.1,18.8z M12,29c0.5,0,1.1-0.1,2-0.4l4.8-1.7c-0.3-0.5-0.5-0.9-0.6-1.4
	C18.1,25,18,24.6,18,24.2c-1.5-0.3-2.8-0.8-4.1-1.5S11.8,21.1,11,20c-0.2-0.3-0.6-0.6-0.9-0.8S9.3,19,8.9,19c-0.6,0-1.1,0.2-1.4,0.5
	C7.2,19.9,7,20.4,7,21.2c0,2.1,0.4,3.9,1.3,5.5S10.4,29,12,29z M21.2,41c1.8,0,3.5-0.4,5.2-1.2s2.6-2.1,2.6-3.9c0-0.4,0-0.7-0.1-1
	c-0.1-0.3-0.2-0.6-0.3-1l-1.7-4.8c-0.4,0.2-0.9,0.4-1.3,0.5c-0.4,0.1-0.9,0.2-1.4,0.2c-0.3,1.5-0.8,2.9-1.5,4
	C22,35.2,21.1,36.2,20,37c-0.3,0.2-0.5,0.5-0.7,0.9S19,38.7,19,39c0,0.5,0.2,1,0.5,1.3C19.9,40.8,20.4,41,21.2,41z M38.8,29
	c0.6,0,1.1-0.1,1.5-0.5c0.4-0.3,0.7-0.9,0.7-1.8c0-1.5-0.3-3.1-1-5s-2-2.8-4.1-2.8c-0.4,0-0.7,0-1,0.1c-0.3,0.1-0.6,0.1-0.9,0.2
	l-4.8,1.8c0.2,0.3,0.3,0.7,0.5,1.3s0.2,1.1,0.2,1.4c1.5,0.3,2.9,0.8,4,1.5c1.2,0.7,2.2,1.6,2.9,2.7c0.2,0.3,0.5,0.5,0.8,0.7
	C38.1,28.9,38.5,29,38.8,29z"/>
</svg>
