<?xml version="1.0" encoding="utf-8"?>
<!-- Generator: Adobe Illustrator 26.4.1, SVG Export Plug-In . SVG Version: 6.00 Build 0)  -->
<svg version="1.1" id="Layer_1" xmlns="http://www.w3.org/2000/svg" xmlns:xlink="http://www.w3.org/1999/xlink" x="0px" y="0px"
	 viewBox="0 0 48 48" style="enable-background:new 0 0 48 48;" xml:space="preserve">
<style type="text/css">
	.st0{fill:#FFFFFF;}
</style>
<path class="st0" d="M9.9,38.2c-1.8-1.8-3.2-3.9-4.3-6.3S4,26.8,4,24s0.5-5.4,1.6-7.8s2.5-4.5,4.3-6.3L12,12
	c-1.5,1.5-2.8,3.3-3.6,5.4S7,21.6,7,24c0,2.4,0.4,4.6,1.3,6.6s2.1,3.8,3.7,5.4L9.9,38.2z M15.5,32.5c-1.1-1.1-1.9-2.3-2.6-3.8
	S12,25.7,12,24s0.3-3.3,0.9-4.7s1.5-2.7,2.6-3.8l2.1,2.1c-0.8,0.8-1.4,1.7-1.9,2.8C15.2,21.6,15,22.7,15,24s0.2,2.4,0.7,3.5
	s1.1,2,1.9,2.9L15.5,32.5z M24,28c-1.1,0-2-0.4-2.8-1.2C20.4,26,20,25.1,20,24s0.4-2,1.2-2.8C22,20.4,22.9,20,24,20s2,0.4,2.8,1.2
	C27.6,22,28,22.9,28,24s-0.4,2-1.2,2.8C26,27.6,25.1,28,24,28z M32.5,32.5l-2.1-2.1c0.8-0.8,1.4-1.7,1.9-2.8
	c0.5-1.1,0.7-2.3,0.7-3.5s-0.2-2.4-0.7-3.5c-0.5-1.1-1.1-2-2-2.9l2.2-2.1c1.1,1.1,1.9,2.3,2.5,3.8c0.6,1.5,1,3,1,4.7
	c0,1.7-0.3,3.2-1,4.7C34.4,30.1,33.6,31.4,32.5,32.5z M38.2,38.2L36,36c1.5-1.5,2.8-3.3,3.7-5.4S41,26.4,41,24
	c0-2.4-0.4-4.6-1.3-6.6c-0.9-2-2.1-3.8-3.7-5.4l2.2-2.1c1.8,1.8,3.2,4,4.3,6.4s1.6,5,1.6,7.8s-0.5,5.4-1.6,7.8
	C41.4,34.2,40,36.3,38.2,38.2z"/>
</svg>
